<svg xmlns="http://www.w3.org/2000/svg" xmlns:xlink="http://www.w3.org/1999/xlink" viewBox="0 0 725 725"><defs><style>.cls-1,.cls-2,.cls-3{opacity:0.57;}.cls-1{fill:url(#radial-gradient);}.cls-2{fill:url(#linear-gradient);}.cls-3{fill:url(#linear-gradient-2);}.cls-4{fill:url(#linear-gradient-3);}.cls-5{fill:url(#linear-gradient-4);}.cls-6{fill:url(#linear-gradient-5);}.cls-7{fill:url(#linear-gradient-6);}.cls-8{fill:url(#linear-gradient-7);}.cls-9{fill:url(#linear-gradient-8);}</style><radialGradient id="radial-gradient" cx="366.62" cy="359.93" fx="132.66553270361953" fy="337.21057347658734" r="353.01" gradientUnits="userSpaceOnUse"><stop offset="0.24" stop-color="#fff" stop-opacity="0.8"/><stop offset="0.39" stop-color="#fbfbfb" stop-opacity="0.8"/><stop offset="0.51" stop-color="#eee" stop-opacity="0.8"/><stop offset="0.63" stop-color="#d8d8d8" stop-opacity="0.8"/><stop offset="0.74" stop-color="#bababa" stop-opacity="0.8"/><stop offset="0.85" stop-color="#939393" stop-opacity="0.8"/><stop offset="0.95" stop-color="#636363" stop-opacity="0.8"/><stop offset="1" stop-color="#4d4d4d" stop-opacity="0.8"/></radialGradient><linearGradient id="linear-gradient" x1="179.9" y1="86.84" x2="579.51" y2="690.67" gradientUnits="userSpaceOnUse"><stop offset="0" stop-color="#c83ab0" stop-opacity="0.6"/><stop offset="0" stop-color="#c53aae" stop-opacity="0.59"/><stop offset="0.06" stop-color="#a53f94" stop-opacity="0.43"/><stop offset="0.13" stop-color="#8a447e" stop-opacity="0.3"/><stop offset="0.21" stop-color="#73476c" stop-opacity="0.19"/><stop offset="0.3" stop-color="#624a5e" stop-opacity="0.1"/><stop offset="0.41" stop-color="#564c54" stop-opacity="0.04"/><stop offset="0.56" stop-color="#4f4d4f" stop-opacity="0.01"/><stop offset="1" stop-color="#4d4d4d" stop-opacity="0"/></linearGradient><linearGradient id="linear-gradient-2" x1="-2605.1" y1="-2271.16" x2="-2205.49" y2="-1667.33" gradientTransform="translate(-2060 -1634) rotate(180)" gradientUnits="userSpaceOnUse"><stop offset="0" stop-color="#75beb8"/><stop offset="0.04" stop-color="#6ea9a5" stop-opacity="0.82"/><stop offset="0.09" stop-color="#669490" stop-opacity="0.63"/><stop offset="0.15" stop-color="#5f817e" stop-opacity="0.46"/><stop offset="0.21" stop-color="#5a706e" stop-opacity="0.31"/><stop offset="0.28" stop-color="#556362" stop-opacity="0.2"/><stop offset="0.36" stop-color="#515959" stop-opacity="0.11"/><stop offset="0.46" stop-color="#4f5252" stop-opacity="0.05"/><stop offset="0.6" stop-color="#4d4e4e" stop-opacity="0.01"/><stop offset="1" stop-color="#4d4d4d" stop-opacity="0"/></linearGradient><linearGradient id="linear-gradient-3" x1="585.77" y1="411.19" x2="323.83" y2="597.54" gradientUnits="userSpaceOnUse"><stop offset="0.09" stop-color="#75beb8"/><stop offset="0.57" stop-color="#5bb6b0"/><stop offset="0.66" stop-color="#57aea9"/><stop offset="0.8" stop-color="#4b9997"/><stop offset="0.97" stop-color="#37777a"/><stop offset="1" stop-color="#347175"/></linearGradient><linearGradient id="linear-gradient-4" x1="513.11" y1="323.66" x2="444.92" y2="650.15" gradientUnits="userSpaceOnUse"><stop offset="0" stop-color="#f5f5f5" stop-opacity="0.3"/><stop offset="0.03" stop-color="#ebeeef" stop-opacity="0.29"/><stop offset="0.28" stop-color="#9cb8ba" stop-opacity="0.16"/><stop offset="0.53" stop-color="#629194" stop-opacity="0.07"/><stop offset="0.76" stop-color="#40797d" stop-opacity="0.02"/><stop offset="0.98" stop-color="#347175" stop-opacity="0"/></linearGradient><linearGradient id="linear-gradient-5" x1="483.54" y1="344.88" x2="461.64" y2="650.98" gradientUnits="userSpaceOnUse"><stop offset="0.5" stop-color="#5bb6b0" stop-opacity="0"/><stop offset="0.6" stop-color="#54aaa6" stop-opacity="0.17"/><stop offset="0.82" stop-color="#448d8d" stop-opacity="0.6"/><stop offset="1" stop-color="#347175"/></linearGradient><linearGradient id="linear-gradient-6" x1="351.87" y1="387.64" x2="572.03" y2="610.31" gradientUnits="userSpaceOnUse"><stop offset="0.82" stop-color="#5bb6b0" stop-opacity="0"/><stop offset="0.85" stop-color="#59b3ad" stop-opacity="0.05"/><stop offset="0.88" stop-color="#54aaa6" stop-opacity="0.18"/><stop offset="0.91" stop-color="#4c9b99" stop-opacity="0.39"/><stop offset="0.95" stop-color="#408687" stop-opacity="0.69"/><stop offset="0.98" stop-color="#347175"/></linearGradient><linearGradient id="linear-gradient-7" x1="220.24" y1="437.92" x2="349.57" y2="82.8" gradientUnits="userSpaceOnUse"><stop offset="0" stop-color="#347175"/><stop offset="0.68" stop-color="#c83ab0"/><stop offset="0.99" stop-color="#d959b7"/></linearGradient><linearGradient id="linear-gradient-8" x1="220.27" y1="437.44" x2="349.59" y2="82.32" gradientUnits="userSpaceOnUse"><stop offset="0.3" stop-color="#347175" stop-opacity="0"/><stop offset="0.59" stop-color="#387478" stop-opacity="0.01"/><stop offset="0.7" stop-color="#467d81" stop-opacity="0.04"/><stop offset="0.79" stop-color="#5e8e91" stop-opacity="0.09"/><stop offset="0.86" stop-color="#81a6a8" stop-opacity="0.16"/><stop offset="0.92" stop-color="#aec4c6" stop-opacity="0.25"/><stop offset="0.98" stop-color="#e4e9ea" stop-opacity="0.37"/><stop offset="0.99" stop-color="#f5f5f5" stop-opacity="0.4"/></linearGradient></defs><g id="Layer_2" data-name="Layer 2"><g id="Layer_1-2" data-name="Layer 1"><circle class="cls-1" cx="363" cy="363" r="362"/><circle class="cls-2" cx="362" cy="362" r="362"/><circle class="cls-3" cx="363" cy="362" r="362"/></g><g id="Layer_3" data-name="Layer 3"><path class="cls-4" d="M547.48,349.84c23.56,59.31,22.7,131.92-.64,191-6.07,15.36-13.7,29.85-21.51,44.34-2.39,4.44-8.18,16.37-.54,12.7,9-4.34,15.77-11,23-17.49,13.69-12.37,26.91-25.21,40.1-38.11,10.11-9.89,18.38-21.16,31.92-27.74,4.12-2,5.06,2.19,3.87,5.76-2.81,8.42-7.35,15.65-12,23A259.87,259.87,0,0,1,573.1,589.9c-24,23.23-49.65,41.19-80.47,54.39C436.92,668.16,348.84,663.48,323,596.93c-26.58-72.37,26.6-148,66-196.24,23-28.13,44.56-56.22,75.65-77.14C506.66,295.24,528.91,303.1,547.48,349.84Z"/><path class="cls-5" d="M547.48,349.84c23.56,59.31,22.7,131.92-.64,191-6.07,15.36-13.7,29.85-21.51,44.34-2.39,4.44-8.18,16.37-.54,12.7,9-4.34,15.77-11,23-17.49,13.69-12.37,26.91-25.21,40.1-38.11,10.11-9.89,18.38-21.16,31.92-27.74,4.12-2,5.06,2.19,3.87,5.76-2.81,8.42-7.35,15.65-12,23A259.87,259.87,0,0,1,573.1,589.9c-24,23.23-49.65,41.19-80.47,54.39C436.92,668.16,348.84,663.48,323,596.93c-26.58-72.37,26.6-148,66-196.24,23-28.13,44.56-56.22,75.65-77.14C506.66,295.24,528.91,303.1,547.48,349.84Z"/><path class="cls-6" d="M547.48,349.84c23.56,59.31,22.7,131.92-.64,191-6.07,15.36-13.7,29.85-21.51,44.34-2.39,4.44-8.18,16.37-.54,12.7,9-4.34,15.77-11,23-17.49,13.69-12.37,26.91-25.21,40.1-38.11,10.11-9.89,18.38-21.16,31.92-27.74,4.12-2,5.06,2.19,3.87,5.76-2.81,8.42-7.35,15.65-12,23A259.87,259.87,0,0,1,573.1,589.9c-24,23.23-49.65,41.19-80.47,54.39C436.92,668.16,348.84,663.48,323,596.93c-26.58-72.37,26.6-148,66-196.24,23-28.13,44.56-56.22,75.65-77.14C506.66,295.24,528.91,303.1,547.48,349.84Z"/><path class="cls-7" d="M547.48,349.84c23.56,59.31,22.7,131.92-.64,191-6.07,15.36-13.7,29.85-21.51,44.34-2.39,4.44-8.18,16.37-.54,12.7,9-4.34,15.77-11,23-17.49,13.69-12.37,26.91-25.21,40.1-38.11,10.11-9.89,18.38-21.16,31.92-27.74,4.12-2,5.06,2.19,3.87,5.76-2.81,8.42-7.35,15.65-12,23A259.87,259.87,0,0,1,573.1,589.9c-24,23.23-49.65,41.19-80.47,54.39C436.92,668.16,348.84,663.48,323,596.93c-26.58-72.37,26.6-148,66-196.24,23-28.13,44.56-56.22,75.65-77.14C506.66,295.24,528.91,303.1,547.48,349.84Z"/><path class="cls-8" d="M425.89,122.14C379,80,312.75,72,254.76,87.93c-65.11,17.93-106.44,50.43-141.2,107.87C84.31,244.14,65.38,312.5,79.64,370.2c10,40.33,19,41.06,56.91,22.17,25.79-12.84,49.8-30.82,76.63-49.56,24.89-17.38,53.53-42.41,76.11-62.8s42.16-43.37,69-59.38c5.94-3.54,18.51-11.85,21.32-1.11,2.41,9.18-3,14.47-6.59,21.26-6.75,12.81-13.67,25.46-18.78,39.11-11.41,30.52-11.69,58.79-6.16,90.18a190,190,0,0,0,11.28,40.31C364.55,423,374,445.1,392.59,438.9c22-7.31,45.68-56.31,53-72.82,26.21-59,35.67-113.28,23.2-177.8C461.25,160.58,448.75,140.06,425.89,122.14Z"/><path class="cls-9" d="M425.92,121.66C379,79.51,312.78,71.49,254.78,87.46c-65.1,17.92-106.43,50.42-141.19,107.86C84.33,243.66,65.41,312,79.67,369.73c10,40.32,19,41,56.91,22.17,25.79-12.85,49.8-30.83,76.63-49.56,24.88-17.38,53.52-42.42,76.1-62.81s42.17-43.37,69-59.38c5.93-3.54,18.51-11.85,21.32-1.11,2.41,9.18-3,14.48-6.59,21.26-6.76,12.81-13.67,25.46-18.78,39.11-11.41,30.53-11.69,58.8-6.17,90.18a190.89,190.89,0,0,0,11.28,40.31c5.22,12.6,14.63,34.72,33.26,28.52,22-7.3,45.68-56.31,53-72.82,26.2-59,35.67-113.28,23.2-177.79C461.28,160.1,448.78,139.58,425.92,121.66Z"/></g></g></svg>